<?xml version="1.0" standalone="no"?>
<!DOCTYPE svg PUBLIC "-//W3C//DTD SVG 20010904//EN"
 "http://www.w3.org/TR/2001/REC-SVG-20010904/DTD/svg10.dtd">
<svg version="1.0" xmlns="http://www.w3.org/2000/svg"
 width="612.000000pt" height="408.000000pt" viewBox="0 0 612.000000 408.000000"
 preserveAspectRatio="xMidYMid meet">

<g transform="translate(0.000000,408.000000) scale(0.100000,-0.100000)"
fill="#000000" stroke="none">
<path d="M3035 3800 c-3 -5 -1 -10 4 -10 6 0 11 5 11 10 0 6 -2 10 -4 10 -3 0
-8 -4 -11 -10z"/>
<path d="M3076 3801 c-3 -4 6 -6 19 -3 14 2 25 6 25 8 0 8 -39 4 -44 -5z"/>
<path d="M3229 3794 c-13 -16 -12 -16 8 -6 14 8 29 9 45 3 13 -6 17 -10 10
-10 -7 -1 -11 -5 -8 -9 6 -11 62 -9 59 1 -2 4 -3 12 -3 17 0 6 -4 10 -10 10
-5 0 -9 -3 -9 -7 3 -21 -2 -25 -13 -10 -20 25 -62 31 -79 11z"/>
<path d="M2765 3793 c-16 -2 -37 -7 -45 -10 -18 -7 -28 -9 -54 -11 -21 -2 -14
-15 9 -18 8 -1 12 2 9 8 -4 6 -1 9 7 6 8 -3 15 -12 17 -21 2 -11 -5 -16 -25
-16 -34 0 -54 -4 -70 -14 -7 -5 -18 -5 -25 -1 -6 4 -17 -1 -24 -10 -13 -19
-39 -23 -68 -11 -16 7 -18 5 -13 -8 7 -18 -1 -21 -42 -17 -16 1 -21 -2 -15
-11 5 -9 2 -11 -9 -6 -9 3 -17 1 -19 -5 -2 -6 -13 -8 -26 -4 -12 4 -19 12 -16
18 4 6 -2 6 -15 -1 -11 -7 -21 -17 -20 -24 0 -9 2 -9 6 1 2 6 9 12 14 12 6 0
7 -5 3 -12 -5 -8 -2 -9 9 -5 9 3 19 2 22 -3 5 -9 -7 -14 -63 -25 -18 -4 -45
-18 -59 -31 -14 -13 -30 -21 -35 -18 -6 4 -21 -6 -34 -21 -12 -15 -28 -24 -33
-20 -6 3 -11 1 -11 -5 0 -6 -4 -8 -10 -5 -5 3 -10 1 -10 -4 0 -6 -5 -11 -11
-11 -5 0 -8 4 -5 9 4 5 0 12 -6 14 -7 3 -1 6 14 6 14 1 29 7 31 14 4 9 6 9 6
-1 1 -10 4 -10 16 2 20 20 19 32 -2 15 -15 -12 -16 -12 -10 3 4 12 -7 8 -43
-14 -38 -23 -48 -35 -44 -51 2 -13 -6 -32 -23 -49 -25 -26 -51 -39 -39 -19 4
5 -3 7 -15 4 -14 -4 -17 -8 -9 -13 21 -13 -8 -22 -32 -10 -21 10 -21 10 -5 -3
21 -18 22 -27 1 -27 -8 0 -13 -4 -9 -9 6 -11 -33 -6 -44 5 -3 3 3 4 13 2 10
-1 21 3 23 9 4 10 -1 11 -19 4 -15 -6 -22 -15 -20 -27 2 -11 1 -16 -3 -12 -10
10 -62 -28 -76 -54 -8 -15 -8 -19 0 -14 6 4 11 2 11 -4 0 -6 5 -8 12 -4 7 4 8
3 4 -5 -4 -6 -11 -9 -15 -7 -4 3 -12 -8 -19 -24 -7 -15 -20 -31 -29 -34 -14
-6 -14 -4 -3 11 8 10 0 5 -16 -12 -17 -16 -28 -36 -25 -44 3 -10 -1 -13 -13
-8 -10 4 -20 7 -23 7 -2 0 2 7 11 15 8 8 19 15 25 15 6 0 11 5 11 10 0 22 -27
5 -70 -44 -14 -16 -19 -26 -11 -21 9 5 12 3 9 -6 -3 -8 -11 -13 -17 -12 -6 2
-11 -6 -11 -18 0 -19 1 -19 23 5 13 14 27 23 30 19 11 -10 8 12 -3 25 -5 7 -2
5 7 -3 16 -14 16 -16 -4 -34 -11 -11 -24 -17 -27 -14 -3 4 -6 -1 -6 -9 0 -9
-7 -18 -15 -22 -10 -3 -15 1 -15 11 0 9 -3 13 -7 9 -13 -12 -10 -30 7 -44 8
-8 9 -11 3 -7 -8 4 -13 0 -13 -10 0 -9 -8 -28 -19 -43 -31 -45 -60 -95 -80
-139 -11 -24 -25 -43 -30 -43 -6 0 -8 -6 -5 -14 8 -20 -11 -29 -25 -12 -9 10
-8 15 4 20 9 3 13 11 9 17 -4 7 -3 9 4 5 6 -3 13 -3 16 2 2 4 -3 8 -13 9 -21
2 -46 -43 -30 -53 6 -3 4 -11 -6 -18 -13 -10 -14 -17 -5 -41 8 -20 8 -31 1
-33 -6 -2 -13 -19 -17 -38 -3 -19 -10 -37 -15 -40 -5 -3 -9 -11 -9 -17 0 -7 4
-6 10 3 6 9 10 10 10 3 0 -6 -7 -19 -16 -27 -19 -19 -40 -11 -24 9 7 8 7 15 1
19 -11 7 -35 -59 -27 -73 4 -5 1 -12 -4 -14 -6 -3 -5 -4 2 -3 7 2 12 10 10 19
-4 22 10 28 26 11 10 -11 9 -17 -7 -31 -15 -13 -18 -20 -9 -30 7 -9 7 -13 -1
-13 -7 0 -10 -4 -7 -9 8 -12 -15 -121 -25 -121 -5 0 -9 7 -9 15 0 8 -4 15 -9
15 -5 0 -8 -11 -7 -24 0 -13 6 -22 12 -19 12 4 13 -46 1 -64 -4 -6 -2 -14 3
-16 6 -3 5 -4 -2 -3 -7 2 -13 17 -13 34 0 16 -3 28 -7 25 -12 -7 -9 -50 4 -65
17 -17 22 -48 8 -48 -6 0 -15 10 -20 23 -6 15 -9 17 -9 6 -1 -9 6 -22 15 -29
11 -10 14 -26 11 -64 -3 -28 -8 -60 -13 -70 -5 -14 -4 -17 4 -12 9 5 12 -4 11
-31 l-1 -38 -9 30 -8 30 3 -33 c1 -18 -1 -35 -6 -38 -13 -8 -9 -69 7 -90 14
-19 14 -18 15 4 0 12 -5 31 -12 41 -6 10 -8 26 -3 37 9 24 13 15 23 -63 6 -44
5 -60 -2 -56 -7 5 -7 2 0 -8 6 -8 14 -30 17 -49 6 -31 5 -33 -7 -17 -12 16
-14 16 -20 2 -4 -11 -2 -14 6 -9 7 5 9 2 5 -8 -3 -10 0 -15 11 -14 16 1 36
-57 27 -82 -3 -7 0 -10 5 -7 14 9 12 -9 -2 -24 -11 -10 -10 -12 2 -9 10 2 14
-4 13 -17 -1 -10 4 -30 12 -45 20 -39 23 -86 5 -82 -10 1 -9 -3 5 -15 22 -19
72 -112 67 -125 -1 -4 3 -8 9 -8 5 0 8 -4 5 -8 -3 -5 4 -16 14 -25 19 -16 18
-47 -1 -47 -5 0 -9 -5 -9 -11 0 -6 9 -8 22 -3 20 6 21 5 10 -9 -11 -12 -10
-15 5 -13 18 1 21 -15 9 -45 -5 -11 -1 -19 10 -23 13 -5 14 -4 6 7 -6 7 -7 18
-3 25 6 10 12 6 25 -12 12 -19 13 -26 4 -26 -10 0 -10 -2 0 -8 7 -5 10 -16 6
-28 -6 -18 -6 -18 8 -1 12 16 16 17 26 4 17 -20 5 -48 -16 -39 -14 5 -15 4 -2
-10 13 -13 16 -14 23 -2 6 11 14 7 35 -18 15 -18 30 -35 35 -36 4 -2 7 -13 7
-23 0 -26 -18 -15 -31 18 -5 14 -12 23 -16 20 -3 -3 -2 -14 2 -24 5 -10 7 -21
7 -25 -1 -5 5 -8 14 -8 8 0 13 -4 10 -8 -2 -4 4 -8 15 -8 13 0 18 5 14 16 -3
10 0 8 10 -4 11 -15 12 -23 3 -40 -10 -18 -9 -19 4 -9 12 11 21 8 48 -17 27
-24 31 -34 26 -57 -5 -23 -4 -25 4 -10 10 16 14 15 50 -14 22 -18 42 -40 46
-51 3 -10 10 -16 15 -13 5 4 9 -5 9 -19 0 -14 4 -28 10 -31 6 -3 7 1 4 9 -3 9
-1 16 5 16 6 0 11 -9 11 -20 0 -28 20 -48 43 -42 15 4 16 7 5 13 -10 7 -10 9
0 9 7 0 15 -7 18 -15 4 -8 10 -12 15 -9 5 3 6 -3 2 -12 -5 -13 -3 -16 10 -11
9 3 19 1 23 -5 5 -7 2 -8 -7 -3 -10 6 -11 5 -4 -3 6 -6 25 -14 44 -17 36 -6
61 -26 61 -47 -1 -9 -4 -9 -13 3 -7 9 -18 14 -24 12 -10 -4 -9 -9 3 -21 14
-13 19 -13 37 -3 17 11 22 11 33 -3 7 -10 14 -16 16 -15 8 5 48 -13 43 -21 -3
-4 3 -7 13 -6 11 1 17 -6 16 -20 0 -14 4 -20 13 -17 7 3 10 9 7 14 -3 5 2 6
10 3 9 -3 13 -11 9 -18 -5 -7 -2 -7 8 1 9 8 20 9 29 3 13 -8 12 -10 -2 -10 -9
0 -20 -5 -24 -11 -6 -10 10 -8 54 8 8 4 10 0 6 -12 -6 -14 -3 -16 14 -11 15 5
27 1 39 -13 10 -12 22 -21 28 -21 5 0 3 5 -5 11 -12 9 -11 10 5 4 11 -3 33 -9
48 -12 21 -4 27 -10 24 -23 -4 -15 1 -17 29 -16 19 2 37 5 40 9 3 3 -6 4 -20
3 -14 -2 -26 1 -26 5 0 14 35 11 66 -6 16 -8 44 -15 62 -15 22 0 32 -5 32 -15
0 -8 -8 -15 -17 -16 -12 0 -13 -2 -5 -6 7 -3 22 3 33 13 10 9 22 14 27 9 4 -4
1 -10 -5 -12 -7 -3 -13 -9 -13 -15 0 -6 9 -3 19 6 12 11 21 14 26 7 3 -6 11
-11 16 -11 6 0 7 4 4 10 -10 16 15 12 31 -5 11 -11 12 -15 3 -15 -7 0 -10 -2
-7 -5 9 -9 38 7 32 17 -4 7 9 8 37 3 60 -11 209 -12 209 -2 0 5 5 5 10 2 6 -4
8 -11 5 -16 -4 -5 -2 -9 4 -9 5 0 11 5 13 11 2 6 26 12 53 13 28 1 55 5 60 8
13 8 120 19 112 12 -3 -3 -13 -7 -23 -8 -10 -2 -20 -9 -22 -17 -3 -11 -1 -11
7 1 10 13 11 13 11 0 0 -10 9 -6 25 13 27 31 35 33 35 12 0 -8 8 -15 18 -14
10 0 12 3 5 6 -7 2 -13 10 -13 16 0 5 3 7 7 4 3 -4 12 -2 20 4 7 6 13 8 13 3
0 -5 4 -3 9 4 4 7 23 15 42 17 38 4 75 15 133 40 34 15 38 15 33 1 -7 -18 8
-22 18 -6 4 6 10 8 15 5 5 -3 12 0 16 6 4 7 3 9 -4 5 -6 -3 -14 -1 -18 5 -4 8
-3 9 4 5 6 -4 21 3 32 14 24 24 48 17 28 -8 -11 -15 -11 -15 3 -5 9 7 19 10
22 7 3 -4 9 5 13 20 3 14 10 26 15 26 5 0 6 -8 3 -17 -3 -10 1 -6 10 8 8 14
26 31 41 37 18 8 24 9 19 1 -12 -20 34 9 49 31 8 11 17 17 20 14 4 -4 9 0 13
9 3 9 18 19 34 22 16 3 36 17 44 31 9 13 22 24 29 24 7 0 18 9 25 21 10 16 19
19 43 14 18 -4 29 -3 29 4 0 6 -8 8 -17 4 -14 -5 -12 0 6 20 29 32 38 33 44
10 4 -17 5 -17 6 0 0 10 5 16 10 13 5 -3 14 1 20 8 9 11 9 16 0 22 -7 4 -9 3
-5 -4 3 -6 2 -13 -3 -16 -5 -3 -11 1 -15 9 -6 16 28 40 44 30 5 -3 11 -1 15 5
3 5 2 10 -4 10 -6 0 0 10 12 23 12 13 25 22 30 20 4 -2 7 2 7 10 0 18 79 103
92 99 6 -2 8 3 5 11 -7 19 41 77 64 77 11 0 17 5 14 10 -4 6 -11 8 -16 5 -18
-12 -8 14 11 28 11 8 18 16 15 19 -3 3 3 11 12 19 16 12 17 12 6 -1 -8 -10 -9
-21 -3 -30 8 -12 10 -11 10 5 0 11 6 29 14 40 7 11 12 28 10 38 -2 14 3 17 19
13 12 -3 16 -3 10 0 -17 8 -16 29 1 44 8 6 16 24 18 38 2 22 8 26 26 24 12 -2
22 2 22 7 0 6 -8 11 -17 12 -11 0 -13 3 -5 6 6 2 12 11 12 19 0 8 7 25 15 38
9 13 15 28 14 32 -3 21 2 28 11 14 10 -17 15 -14 24 18 6 17 3 22 -11 22 -16
1 -16 2 -2 13 10 7 14 23 12 39 -2 19 3 33 17 45 21 18 28 39 9 27 -8 -4 -8
-1 -1 12 5 11 7 26 4 34 -4 13 -3 13 10 2 19 -15 31 -2 21 24 -5 13 -3 15 7 9
10 -6 12 -4 7 9 -4 10 -7 23 -7 29 0 7 -4 6 -10 -3 -7 -11 -8 -5 -3 20 3 19 9
37 12 40 4 3 7 20 8 38 1 17 3 50 4 72 2 39 12 52 22 28 4 -10 6 -10 6 -1 1 6
-3 15 -9 18 -5 3 -10 11 -10 16 0 6 5 7 10 4 6 -3 10 -1 10 4 0 6 -4 11 -8 11
-11 0 -10 165 1 176 4 4 7 14 6 23 0 12 -3 11 -10 -4 -8 -16 -8 -14 -5 11 3
17 0 36 -7 43 -7 7 -7 11 -1 11 6 0 11 7 11 15 0 8 -4 12 -9 9 -8 -5 -10 4
-12 71 0 22 -5 43 -10 46 -4 4 -3 16 3 28 9 16 9 19 -1 16 -9 -4 -17 10 -24
40 -7 32 -7 45 0 45 7 0 7 3 0 8 -6 4 -15 18 -19 32 -7 22 -6 23 8 12 10 -9
17 -10 22 -2 4 6 3 10 -2 9 -13 -3 -43 12 -43 23 0 5 10 6 23 3 15 -4 18 -4 8
3 -7 5 -10 15 -7 21 4 6 3 11 -3 11 -5 0 -12 8 -14 18 -4 16 -5 16 -6 0 0 -10
-6 -18 -12 -18 -6 0 -9 7 -6 15 4 8 2 17 -4 21 -6 3 -4 11 6 18 16 11 12 46
-6 46 -4 0 -6 8 -3 18 5 14 4 15 -5 2 -10 -13 -13 -12 -27 5 -8 11 -13 30 -11
42 2 12 0 21 -6 20 -5 -1 -11 8 -13 21 -2 12 1 22 8 22 6 0 8 3 5 6 -4 4 -13
1 -21 -5 -18 -16 -32 4 -17 23 9 11 8 14 -5 12 -9 0 -19 4 -21 11 -2 6 4 10
14 9 10 -2 13 -1 6 1 -7 2 -10 10 -7 18 3 7 1 16 -5 20 -7 3 -8 0 -5 -9 3 -9
2 -16 -4 -16 -15 0 -21 22 -11 41 4 8 3 22 -3 30 -8 11 -9 10 -4 -5 5 -14 2
-17 -10 -12 -8 3 -18 6 -20 6 -2 0 -4 11 -4 25 0 15 -6 25 -14 25 -18 0 -26
12 -32 47 -5 24 -3 25 13 12 16 -13 17 -12 4 3 -7 10 -17 15 -23 12 -13 -8
-40 17 -34 32 3 8 0 11 -8 8 -7 -3 -19 2 -26 11 -7 8 -9 15 -5 15 4 0 -3 8
-16 18 -17 15 -19 21 -9 27 9 5 11 4 6 -4 -4 -6 -4 -10 1 -9 4 1 19 -3 33 -10
l25 -13 -22 19 c-12 11 -20 21 -18 24 2 2 -5 5 -16 5 -11 1 -29 11 -38 22 -10
11 -20 18 -23 16 -3 -3 -11 2 -19 11 -13 16 -11 17 20 11 l34 -7 -26 25 c-24
25 -74 44 -62 24 11 -17 -2 -10 -36 21 -19 16 -37 30 -41 30 -5 0 -8 5 -8 12
0 6 7 4 18 -5 15 -14 19 -14 19 -3 0 8 -5 14 -11 13 -5 -1 -10 7 -11 18 0 14
-6 19 -19 17 -11 -2 -15 1 -11 7 6 10 -27 28 -67 36 -24 5 -59 30 -52 37 8 9
-19 48 -33 48 -7 0 -13 5 -13 12 0 6 -3 8 -7 4 -5 -4 1 -14 11 -22 19 -14 19
-14 -2 -14 -12 0 -22 4 -22 10 0 5 -11 12 -25 16 -14 3 -25 10 -25 16 0 5 -4
6 -10 3 -11 -7 -55 14 -46 22 3 3 12 0 20 -6 10 -9 16 -9 21 -1 5 8 11 7 22
-2 18 -15 45 -20 37 -7 -3 5 -9 7 -14 4 -4 -3 -13 2 -20 10 -10 12 -16 13 -26
4 -11 -9 -14 -8 -14 0 0 7 -10 11 -22 10 -37 -4 -76 20 -71 42 3 11 0 19 -6
19 -7 0 -10 -4 -7 -8 3 -5 -11 -9 -30 -9 -32 0 -35 3 -29 24 4 18 1 23 -12 23
-15 0 -16 -2 -3 -10 8 -5 13 -10 10 -11 -3 0 -13 -2 -22 -4 -11 -2 -22 7 -30
26 -7 16 -20 31 -28 34 -12 5 -13 4 -2 -6 6 -7 12 -20 12 -28 -1 -14 -3 -13
-14 2 -13 17 -32 25 -22 9 3 -5 -10 -4 -29 2 -34 11 -29 28 6 19 11 -3 19 0
19 6 0 7 -4 9 -10 6 -5 -3 -10 -1 -10 6 0 10 -3 10 -12 1 -7 -7 -23 -12 -38
-12 -20 0 -22 2 -10 10 13 8 12 10 -2 10 -10 0 -18 -5 -18 -11 0 -5 -4 -8 -9
-5 -5 3 -31 7 -57 10 -27 2 -62 9 -79 16 l-30 11 25 19 c14 11 20 20 14 20 -6
0 -17 -7 -24 -15 -20 -24 -74 -29 -105 -9 -21 14 -28 15 -35 4 -9 -15 -30 -5
-30 16 0 8 -5 14 -11 14 -5 0 -8 -4 -5 -9 3 -5 -3 -11 -14 -14 -13 -3 -20 0
-20 9 0 8 -4 14 -10 14 -5 0 -9 -6 -7 -12 2 -12 -62 -16 -128 -9 -11 2 -31 -1
-44 -5 -16 -5 -22 -4 -18 3 4 6 -2 13 -13 16 -15 4 -20 1 -18 -11 2 -12 -6
-18 -27 -20 -16 -2 -27 0 -23 4 8 8 -9 34 -22 34 -5 0 -6 -10 -2 -22 5 -20 4
-21 -11 -10 -9 8 -22 12 -29 9 -8 -4 -7 -6 5 -6 27 -1 20 -21 -9 -21 -17 0
-23 4 -18 13 4 6 -2 4 -13 -5 -24 -22 -49 -23 -56 -4 -8 20 1 26 37 26 17 0
38 5 46 10 8 5 11 9 5 8 -5 0 -23 -3 -40 -5z m555 -79 c68 -7 248 -55 313 -83
27 -12 55 -21 62 -21 15 0 240 -113 263 -133 8 -6 42 -29 76 -49 34 -21 85
-59 115 -85 64 -57 221 -215 221 -224 0 -3 10 -17 21 -30 12 -13 33 -40 48
-59 14 -19 32 -41 39 -48 6 -7 12 -18 12 -23 0 -6 18 -37 40 -69 22 -33 45
-72 51 -87 6 -15 16 -41 24 -58 73 -162 81 -186 114 -335 35 -162 43 -230 43
-380 0 -135 -15 -269 -43 -375 -5 -22 -16 -68 -24 -103 -16 -72 -121 -312
-169 -387 -18 -27 -41 -63 -51 -80 -42 -69 -169 -220 -234 -278 -150 -134
-204 -175 -323 -244 -163 -95 -403 -184 -548 -203 -252 -34 -328 -34 -605 0
-132 16 -406 113 -510 180 -22 14 -53 31 -68 38 -15 6 -53 31 -85 54 -31 24
-70 52 -87 64 -16 11 -46 36 -66 55 -20 19 -47 43 -60 55 -32 27 -130 138
-143 161 -5 10 -15 23 -21 28 -16 13 -95 122 -95 131 0 3 -14 26 -30 51 -38
55 -54 88 -92 177 -58 139 -69 173 -101 321 -30 143 -32 160 -32 360 1 196 3
220 32 355 40 187 104 348 211 531 25 43 51 78 135 189 60 78 192 205 292 280
22 16 45 34 51 39 6 5 25 16 42 25 18 9 32 21 32 25 0 5 17 15 38 21 20 7 44
18 52 25 40 33 202 100 345 141 28 8 73 22 100 30 101 29 416 39 615 18z
m-1233 -236 c-3 -8 -6 -5 -6 6 -1 11 2 17 5 13 3 -3 4 -12 1 -19z m1967 1 c-3
-5 -10 -7 -15 -3 -5 3 -7 10 -3 15 3 5 10 7 15 3 5 -3 7 -10 3 -15z m98 -63
c15 -5 26 -13 25 -20 -1 -6 6 -10 16 -10 9 1 17 -2 17 -7 0 -17 -35 -9 -48 11
-7 11 -21 20 -31 20 -11 0 -22 4 -25 9 -6 10 1 9 46 -3z m-2274 -93 c-4 -26
-37 -48 -51 -34 -7 7 -5 12 9 17 10 4 23 13 27 21 11 18 18 16 15 -4z m36 10
c-5 -5 -12 -12 -16 -18 -4 -6 -8 -2 -8 8 0 9 7 17 17 17 9 0 12 -3 7 -7z
m2416 -63 c0 -5 -10 -10 -22 -9 -22 0 -22 1 -3 9 11 5 21 9 23 9 1 1 2 -3 2
-9z m-2867 -547 c-3 -7 -9 -10 -14 -7 -14 8 -11 21 5 21 8 0 12 -6 9 -14z
m3246 -57 c7 -8 8 -17 3 -19 -4 -3 -13 3 -20 14 -14 22 0 26 17 5z m31 -96 c0
-5 -5 -10 -11 -10 -5 0 -7 5 -4 10 3 6 8 10 11 10 2 0 4 -4 4 -10z m40 -955
c0 -5 -5 -3 -10 5 -5 8 -10 20 -10 25 0 6 5 3 10 -5 5 -8 10 -19 10 -25z
m-970 -1165 c0 -5 -4 -10 -10 -10 -5 0 -10 5 -10 10 0 6 5 10 10 10 6 0 10 -4
10 -10z"/>
<path d="M3770 3466 c0 -2 9 -6 20 -9 11 -3 18 -1 14 4 -5 9 -34 13 -34 5z"/>
<path d="M3820 3449 c0 -5 5 -7 10 -4 6 3 10 8 10 11 0 2 -4 4 -10 4 -5 0 -10
-5 -10 -11z"/>
<path d="M3710 3440 c-9 -6 -10 -10 -3 -10 6 0 15 5 18 10 8 12 4 12 -15 0z"/>
<path d="M3773 3433 c9 -2 23 -2 30 0 6 3 -1 5 -18 5 -16 0 -22 -2 -12 -5z"/>
<path d="M3792 3398 c2 -7 -5 -12 -14 -12 -10 1 -17 -1 -16 -5 2 -22 -5 -23
-22 -1 -11 14 -20 21 -20 15 1 -5 13 -24 28 -40 15 -17 23 -25 18 -18 -12 19
0 28 18 14 12 -10 14 -9 11 6 -1 10 2 23 7 30 6 7 5 14 -2 18 -6 4 -9 1 -8 -7z"/>
<path d="M3865 3392 c4 -8 11 -26 15 -40 7 -22 8 -23 9 -6 1 11 -6 29 -15 40
-8 10 -12 13 -9 6z"/>
<path d="M3886 3282 c-3 -6 -2 -13 3 -17 6 -3 7 -13 4 -23 -4 -13 -3 -14 6 -6
8 7 9 19 3 34 -5 14 -11 19 -16 12z"/>
<path d="M3810 3271 c0 -6 4 -12 8 -15 5 -3 9 1 9 9 0 8 -4 15 -9 15 -4 0 -8
-4 -8 -9z"/>
<path d="M3918 3243 c-3 -21 -2 -40 2 -43 3 -3 6 -18 6 -34 0 -16 6 -32 14
-34 9 -3 11 1 6 14 -4 11 -10 44 -13 74 -7 68 -9 72 -15 23z"/>
<path d="M3790 3262 c0 -4 4 -12 9 -17 6 -6 -18 -22 -67 -43 -59 -26 -83 -42
-105 -73 -16 -21 -34 -39 -41 -39 -18 0 -46 -33 -46 -53 0 -11 5 -14 17 -10
17 7 17 5 0 -21 -23 -34 -20 -38 23 -26 18 5 36 7 40 5 4 -3 13 2 20 10 18 22
33 19 21 -4 -9 -16 -8 -18 9 -14 11 3 20 4 20 1 0 -2 -34 -39 -75 -83 -41 -44
-75 -86 -75 -92 0 -7 11 -13 24 -13 33 0 76 -52 69 -82 l-6 -23 27 25 c24 21
26 22 20 5 -4 -11 -4 -17 1 -13 4 4 13 4 20 -2 13 -10 55 -2 55 11 0 5 -6 9
-13 9 -8 0 -22 9 -32 20 -16 18 -16 21 -2 43 38 58 113 115 142 108 5 -2 7 1
3 5 -4 4 0 13 10 21 16 12 16 13 -1 7 -13 -5 -16 -2 -11 10 3 9 11 13 16 10 7
-5 7 -1 0 12 -5 10 -7 27 -3 38 5 12 9 46 10 76 1 30 6 57 12 58 5 2 9 13 9
25 0 16 -3 18 -9 9 -6 -10 -10 -9 -14 7 -3 14 -1 19 6 14 7 -4 -8 14 -32 40
-47 49 -51 52 -51 39z"/>
<path d="M3841 3256 c-9 -10 -8 -16 4 -26 19 -16 41 1 32 24 -8 20 -21 20 -36
2z m26 -11 c0 -8 -4 -12 -9 -9 -4 3 -8 9 -8 15 0 5 4 9 8 9 5 0 9 -7 9 -15z"/>
<path d="M3517 3169 c-10 -25 -32 -64 -50 -85 -55 -66 -76 -145 -42 -158 8 -3
15 -16 15 -28 0 -13 3 -34 7 -47 6 -22 6 -22 21 10 9 19 17 56 18 82 1 27 7
62 13 79 15 42 14 43 -15 11 l-25 -28 26 40 c40 63 56 105 53 139 -3 31 -3 31
-21 -15z"/>
<path d="M3878 3033 c7 -3 16 -2 19 1 4 3 -2 6 -13 5 -11 0 -14 -3 -6 -6z"/>
<path d="M3866 2982 c-3 -5 1 -9 9 -9 8 0 15 4 15 9 0 4 -4 8 -9 8 -6 0 -12
-4 -15 -8z"/>
<path d="M3897 2953 c-4 -3 -7 -15 -7 -25 0 -10 -5 -18 -11 -18 -5 0 -7 -5 -3
-11 5 -8 9 -8 14 1 6 10 9 9 12 0 2 -7 4 3 4 24 0 40 0 39 -9 29z"/>
<path d="M3922 2930 c0 -14 2 -19 5 -12 2 6 2 18 0 25 -3 6 -5 1 -5 -13z"/>
<path d="M3861 2870 c0 -8 4 -24 8 -35 8 -19 8 -19 15 3 4 13 5 26 2 29 -3 4
-6 0 -7 -8 0 -8 -4 -6 -9 6 -5 13 -9 14 -9 5z"/>
<path d="M3865 2801 c-6 -11 9 -23 19 -14 9 9 7 23 -3 23 -6 0 -12 -4 -16 -9z"/>
<path d="M3856 2694 c-11 -8 -30 -14 -42 -14 -25 0 -54 -39 -54 -73 0 -14 17
-40 45 -67 25 -24 45 -52 45 -62 0 -25 16 -23 34 4 22 30 21 88 0 88 -11 0
-14 5 -9 18 13 33 16 67 8 94 -7 24 -10 25 -27 12z"/>
<path d="M2298 2677 c-39 -32 -55 -101 -35 -149 17 -41 58 -60 86 -39 9 6 30
20 47 31 51 33 69 95 39 136 -8 12 -11 25 -7 29 4 5 2 5 -5 1 -6 -3 -14 -2
-18 4 -11 18 -79 10 -107 -13z m70 -27 c9 -15 9 -20 0 -20 -20 0 -48 -32 -48
-55 0 -13 -6 -27 -13 -34 -20 -16 -37 7 -37 51 0 32 5 41 33 58 40 25 49 25
65 0z m65 -6 c9 -10 -4 -34 -18 -34 -17 0 -28 17 -20 30 7 11 28 13 38 4z"/>
<path d="M2955 2571 c-11 -5 -29 -18 -39 -30 -11 -11 -27 -21 -36 -21 -9 0
-23 -11 -30 -25 -7 -13 -21 -27 -32 -31 -10 -3 -18 -8 -18 -12 1 -9 37 -52 44
-52 3 0 15 -9 25 -19 24 -24 109 -36 182 -26 45 6 58 14 105 62 30 30 54 58
54 62 0 11 -39 44 -83 70 -41 25 -138 37 -172 22z m98 -18 c9 -9 -43 -63 -60
-63 -19 0 -16 -61 5 -86 10 -11 24 -23 32 -26 32 -12 -39 -19 -78 -8 -35 9
-42 15 -47 43 -8 40 5 75 38 105 32 30 95 50 110 35z"/>
<path d="M2172 2284 c-42 -22 -56 -49 -77 -154 -31 -150 -31 -170 4 -226 16
-27 34 -70 40 -94 6 -29 20 -54 38 -69 15 -13 50 -44 78 -68 35 -31 55 -43 70
-39 11 3 28 6 38 6 10 0 16 4 13 8 -3 5 1 9 9 9 8 0 15 -4 15 -9 0 -17 28 -7
33 12 7 26 33 35 60 22 37 -19 81 -19 85 0 2 9 -3 18 -10 21 -7 2 -5 3 4 2 10
-2 20 1 23 5 9 14 40 0 50 -23 8 -19 18 -22 62 -22 28 0 49 -3 46 -7 -7 -12 5
-9 39 8 17 9 26 19 20 23 -6 4 -3 14 9 30 10 13 19 19 19 15 0 -14 20 20 20
34 0 8 -5 10 -12 6 -8 -5 -7 -1 2 10 13 16 12 20 -5 33 -24 17 -76 11 -167
-18 -75 -24 -112 -24 -164 0 -43 19 -93 73 -75 79 17 6 13 22 -5 22 -13 0 -15
7 -10 30 3 17 1 30 -4 30 -6 0 -10 7 -10 15 0 12 7 14 28 10 23 -6 25 -5 11 7
-9 7 -14 19 -12 26 3 6 0 12 -7 12 -6 0 -8 5 -5 10 4 6 10 8 15 5 4 -3 15 -3
23 0 16 7 32 141 20 171 -3 9 -36 30 -71 46 -83 38 -190 48 -240 22z m283
-574 c3 -6 -1 -7 -9 -4 -18 7 -21 14 -7 14 6 0 13 -4 16 -10z m51 1 c-4 -5 0
-12 6 -14 8 -3 6 -6 -4 -6 -10 -1 -18 6 -18 14 0 8 5 15 11 15 5 0 8 -4 5 -9z"/>
<path d="M2546 1951 c-4 -5 3 -7 14 -4 23 6 26 13 6 13 -8 0 -17 -4 -20 -9z"/>
<path d="M2470 1879 c0 -5 5 -7 10 -4 6 3 10 8 10 11 0 2 -4 4 -10 4 -5 0 -10
-5 -10 -11z"/>
<path d="M3966 1633 c-6 -14 -5 -15 5 -6 7 7 10 15 7 18 -3 3 -9 -2 -12 -12z"/>
<path d="M3887 1529 c7 -7 15 -10 18 -7 3 3 -2 9 -12 12 -14 6 -15 5 -6 -5z"/>
<path d="M3870 1496 c0 -24 12 -46 21 -40 5 3 9 10 9 15 0 6 -4 7 -10 4 -5 -3
-10 1 -10 9 0 22 23 20 38 -4 7 -11 16 -20 22 -20 5 0 -1 11 -14 25 -25 27
-56 33 -56 11z"/>
<path d="M3792 1477 c-8 -10 -6 -16 9 -25 11 -7 17 -18 13 -24 -5 -7 -3 -8 5
-4 7 5 10 11 7 14 -3 3 0 12 7 21 10 14 10 14 -4 4 -18 -15 -30 -8 -22 13 6
18 -1 18 -15 1z"/>
<path d="M3755 1451 c-3 -5 -2 -12 3 -15 5 -3 9 1 9 9 0 17 -3 19 -12 6z"/>
<path d="M3915 1429 c-3 -4 2 -6 10 -5 21 3 28 13 10 13 -9 0 -18 -4 -20 -8z"/>
<path d="M3790 1411 c0 -6 -10 -16 -22 -21 -16 -6 -18 -9 -7 -9 19 -1 45 26
35 36 -3 3 -6 1 -6 -6z"/>
<path d="M3815 1400 c-3 -6 1 -7 9 -4 18 7 21 14 7 14 -6 0 -13 -4 -16 -10z"/>
<path d="M3720 1370 c0 -5 5 -10 10 -10 6 0 10 5 10 10 0 6 -4 10 -10 10 -5 0
-10 -4 -10 -10z"/>
<path d="M3795 1370 c-3 -6 1 -7 9 -4 18 7 21 14 7 14 -6 0 -13 -4 -16 -10z"/>
<path d="M3867 1353 c3 -7 6 -13 8 -13 2 0 5 6 8 13 3 8 -1 14 -8 14 -7 0 -11
-6 -8 -14z"/>
<path d="M3816 1322 c-3 -5 1 -9 9 -9 8 0 12 4 9 9 -3 4 -7 8 -9 8 -2 0 -6 -4
-9 -8z"/>
<path d="M3766 1268 c3 -5 10 -6 15 -3 13 9 11 12 -6 12 -8 0 -12 -4 -9 -9z"/>
<path d="M3736 1218 c3 -5 10 -6 15 -3 13 9 11 12 -6 12 -8 0 -12 -4 -9 -9z"/>
<path d="M3675 1179 c-11 -17 1 -21 15 -4 8 9 8 15 2 15 -6 0 -14 -5 -17 -11z"/>
<path d="M2886 3787 c3 -8 11 -14 19 -14 11 0 12 4 4 14 -6 7 -15 13 -20 13
-5 0 -6 -6 -3 -13z"/>
<path d="M3432 3758 c2 -14 11 -24 23 -26 19 -3 19 -2 1 12 -10 8 -15 19 -11
25 3 6 1 11 -5 11 -6 0 -10 -10 -8 -22z"/>
<path d="M2745 3760 c3 -5 8 -10 11 -10 2 0 4 5 4 10 0 6 -5 10 -11 10 -5 0
-7 -4 -4 -10z"/>
<path d="M3395 3760 c-3 -5 1 -10 9 -10 9 0 16 5 16 10 0 6 -4 10 -9 10 -6 0
-13 -4 -16 -10z"/>
<path d="M2599 3749 c-10 -6 -7 -9 14 -9 29 0 35 5 14 13 -8 3 -20 1 -28 -4z"/>
<path d="M3497 3753 c-12 -12 -7 -23 11 -23 13 0 14 2 3 9 -11 7 -11 9 0 14 8
3 9 6 3 6 -6 1 -14 -2 -17 -6z"/>
<path d="M2510 3728 c-31 -9 -33 -11 -15 -19 28 -11 43 -11 25 1 -12 8 -11 10
8 10 12 0 22 5 22 10 0 6 -1 10 -2 9 -2 0 -19 -5 -38 -11z"/>
<path d="M2461 3694 c0 -11 3 -14 6 -6 3 7 2 16 -1 19 -3 4 -6 -2 -5 -13z"/>
<path d="M2393 3688 c-13 -6 -23 -15 -23 -20 0 -13 9 -10 32 12 24 22 23 23
-9 8z"/>
<path d="M3711 3674 c0 -11 3 -14 6 -6 3 7 2 16 -1 19 -3 4 -6 -2 -5 -13z"/>
<path d="M2286 3635 c-11 -8 -15 -15 -9 -15 6 0 16 7 23 15 16 19 11 19 -14 0z"/>
<path d="M2231 3598 c-1 -10 -6 -18 -13 -18 -6 0 -9 -2 -7 -5 8 -7 49 7 49 17
0 5 -4 7 -9 4 -5 -4 -12 0 -14 6 -3 8 -6 6 -6 -4z"/>
<path d="M3864 3600 c2 -16 20 -14 24 2 3 10 2 10 -6 -1 -7 -9 -11 -10 -15 -2
-4 7 -5 8 -3 1z"/>
<path d="M2037 3494 c-3 -3 -3 -12 0 -20 3 -8 1 -20 -3 -27 -5 -7 -1 -4 9 7
12 13 15 22 8 24 -6 2 -9 8 -5 13 6 10 1 12 -9 3z"/>
<path d="M4090 3486 c0 -2 8 -10 18 -17 15 -13 16 -12 3 4 -13 16 -21 21 -21
13z"/>
<path d="M2001 3466 c-15 -18 0 -28 16 -10 7 7 9 15 4 18 -5 3 -14 -1 -20 -8z"/>
<path d="M1966 3442 c-3 -5 1 -9 9 -9 8 0 12 4 9 9 -3 4 -7 8 -9 8 -2 0 -6 -4
-9 -8z"/>
<path d="M4250 3341 c0 -5 7 -15 17 -22 15 -13 15 -12 4 9 -12 23 -21 28 -21
13z"/>
<path d="M1770 3246 c0 -7 7 -13 15 -13 8 0 15 4 15 8 0 4 -7 9 -15 13 -9 3
-15 0 -15 -8z"/>
<path d="M4510 3016 c0 -2 7 -7 16 -10 8 -3 12 -2 9 4 -6 10 -25 14 -25 6z"/>
<path d="M1575 2992 c5 -19 3 -23 -11 -20 -10 2 -19 -2 -19 -9 0 -6 -3 -15 -7
-19 -12 -12 -9 -21 8 -28 14 -5 15 -4 5 8 -10 12 -8 16 8 21 25 8 37 43 21 59
-10 8 -11 6 -5 -12z"/>
<path d="M4553 2969 c-2 -23 3 -25 10 -4 4 8 3 16 -1 19 -4 3 -9 -4 -9 -15z"/>
<path d="M1507 2893 c-4 -3 -7 -11 -7 -17 0 -6 5 -5 12 2 6 6 9 14 7 17 -3 3
-9 2 -12 -2z"/>
<path d="M4670 2739 c0 -8 5 -21 10 -29 8 -12 9 -10 7 7 -4 26 -17 43 -17 22z"/>
<path d="M1410 2689 c0 -5 5 -7 10 -4 6 3 10 8 10 11 0 2 -4 4 -10 4 -5 0 -10
-5 -10 -11z"/>
<path d="M1399 2665 c-1 -3 -2 -8 -3 -12 -1 -5 -5 -13 -9 -20 -4 -6 -3 -14 3
-18 12 -7 11 -8 14 28 3 23 -1 38 -5 22z"/>
<path d="M4781 2464 c0 -11 3 -14 6 -6 3 7 2 16 -1 19 -3 4 -6 -2 -5 -13z"/>
<path d="M1335 2460 c-3 -5 -4 -10 0 -10 3 0 1 -9 -4 -19 -8 -14 -7 -20 2 -24
8 -3 13 7 14 29 2 35 -1 41 -12 24z"/>
<path d="M4776 2415 c4 -8 10 -12 15 -9 14 8 10 24 -6 24 -9 0 -12 -6 -9 -15z"/>
<path d="M1330 2370 c-13 -8 -12 -10 3 -10 9 0 17 5 17 10 0 12 -1 12 -20 0z"/>
<path d="M4806 2287 c3 -10 9 -15 12 -12 3 3 0 11 -7 18 -10 9 -11 8 -5 -6z"/>
<path d="M1290 2139 c0 -11 4 -18 10 -14 5 3 7 12 3 20 -7 21 -13 19 -13 -6z"/>
<path d="M4828 2056 c-3 -14 -1 -31 3 -38 6 -8 9 1 9 25 0 42 -6 48 -12 13z"/>
<path d="M1302 1810 c0 -14 2 -19 5 -12 2 6 2 18 0 25 -3 6 -5 1 -5 -13z"/>
<path d="M1320 1671 c0 -10 19 -25 25 -20 1 2 -3 10 -11 17 -8 7 -14 8 -14 3z"/>
<path d="M1330 1626 c0 -8 5 -18 10 -21 6 -3 10 1 10 9 0 8 -4 18 -10 21 -5 3
-10 -1 -10 -9z"/>
<path d="M1340 1580 c0 -5 5 -10 11 -10 5 0 7 5 4 10 -3 6 -8 10 -11 10 -2 0
-4 -4 -4 -10z"/>
<path d="M1356 1551 c-9 -14 3 -38 19 -38 20 0 19 13 -1 21 -8 3 -12 10 -9 16
3 5 4 10 1 10 -3 0 -7 -4 -10 -9z"/>
<path d="M4730 1508 c0 -9 5 -20 10 -23 13 -8 13 5 0 25 -8 13 -10 13 -10 -2z"/>
<path d="M1370 1491 c0 -6 4 -13 10 -16 6 -3 7 1 4 9 -7 18 -14 21 -14 7z"/>
<path d="M1446 1316 c4 -48 17 -69 43 -71 28 -2 26 3 -5 15 -17 7 -24 15 -20
25 3 8 0 15 -7 15 -9 0 -9 2 0 8 10 7 10 12 0 26 -12 16 -13 14 -11 -18z"/>
<path d="M4633 1255 c4 -5 0 -19 -8 -32 -9 -13 -12 -23 -7 -23 5 0 14 11 20
25 9 18 8 26 -1 31 -7 4 -9 3 -4 -1z"/>
<path d="M4486 994 c-5 -14 -4 -15 9 -4 17 14 19 20 6 20 -5 0 -12 -7 -15 -16z"/>
<path d="M4460 959 c0 -5 5 -7 10 -4 6 3 10 8 10 11 0 2 -4 4 -10 4 -5 0 -10
-5 -10 -11z"/>
<path d="M1751 854 c0 -11 3 -14 6 -6 3 7 2 16 -1 19 -3 4 -6 -2 -5 -13z"/>
<path d="M4354 838 c-4 -13 -14 -29 -23 -37 -9 -8 -6 -7 9 2 14 9 24 20 23 26
-2 6 2 11 7 11 6 0 10 5 10 10 0 19 -19 10 -26 -12z"/>
<path d="M1770 830 c-8 -5 -10 -10 -5 -10 6 0 17 5 25 10 8 5 11 10 5 10 -5 0
-17 -5 -25 -10z"/>
<path d="M1838 763 c12 -2 20 -9 17 -14 -4 -5 2 -9 12 -9 14 0 15 -2 5 -9 -11
-6 -10 -10 4 -15 25 -10 27 -2 3 27 -12 16 -29 26 -42 26 -22 -2 -22 -2 1 -6z"/>
<path d="M4126 651 c-3 -5 3 -11 15 -14 16 -4 18 -3 8 9 -13 16 -16 17 -23 5z"/>
<path d="M2085 560 c3 -4 16 -7 30 -7 32 0 26 8 -9 11 -14 2 -23 0 -21 -4z"/>
<path d="M3982 530 c-12 -19 -11 -20 8 -8 11 7 20 16 20 20 0 15 -15 8 -28
-12z"/>
<path d="M2185 500 c-3 -5 -1 -10 4 -10 6 0 11 5 11 10 0 6 -2 10 -4 10 -3 0
-8 -4 -11 -10z"/>
<path d="M2220 479 c0 -5 5 -7 10 -4 6 3 10 8 10 11 0 2 -4 4 -10 4 -5 0 -10
-5 -10 -11z"/>
<path d="M2425 380 c3 -5 11 -10 16 -10 6 0 7 5 4 10 -3 6 -11 10 -16 10 -6 0
-7 -4 -4 -10z"/>
<path d="M3645 380 c-3 -5 -1 -10 4 -10 6 0 11 5 11 10 0 6 -2 10 -4 10 -3 0
-8 -4 -11 -10z"/>
<path d="M3564 344 c-18 -14 -18 -14 6 -3 31 14 36 19 24 19 -6 0 -19 -7 -30
-16z"/>
<path d="M3493 325 c0 -7 6 -11 14 -8 7 3 13 6 13 8 0 2 -6 5 -13 8 -8 3 -14
-1 -14 -8z"/>
<path d="M2648 308 c9 -9 15 -9 24 0 9 9 7 12 -12 12 -19 0 -21 -3 -12 -12z"/>
<path d="M3205 280 c3 -5 11 -10 16 -10 6 0 7 5 4 10 -3 6 -11 10 -16 10 -6 0
-7 -4 -4 -10z"/>
<path d="M2908 273 c6 -2 18 -2 25 0 6 3 1 5 -13 5 -14 0 -19 -2 -12 -5z"/>
</g>
</svg>
